<svg width="15" height="8" viewBox="0 0 15 8" fill="none" xmlns="http://www.w3.org/2000/svg">
<path d="M0.5 3.18188C0.223858 3.18188 0 3.40574 0 3.68188C0 3.95803 0.223858 4.18188 0.5 4.18188V3.18188ZM13.9445 4.03544C14.1397 3.84018 14.1397 3.52359 13.9445 3.32833L10.7625 0.146351C10.5672 -0.0489113 10.2506 -0.0489113 10.0554 0.146351C9.86011 0.341613 9.86011 0.658195 10.0554 0.853458L12.8838 3.68188L10.0554 6.51031C9.86011 6.70557 9.86011 7.02216 10.0554 7.21742C10.2506 7.41268 10.5672 7.41268 10.7625 7.21742L13.9445 4.03544ZM0.5 4.18188H13.5909V3.18188H0.5V4.18188Z" fill="white"/>
</svg>
