<svg width="16" height="16" viewBox="0 0 16 16" fill="none" xmlns="http://www.w3.org/2000/svg">
<mask id="path-1-inside-1_1002_16171" fill="white">
<path d="M7.99985 8.86682C7.91319 8.86682 7.82652 8.84684 7.74652 8.80017L1.85986 5.39351C1.61986 5.25351 1.53985 4.94683 1.67985 4.70683C1.81985 4.46683 2.11985 4.38681 2.36651 4.52681L7.99985 7.78682L13.5999 4.54683C13.8399 4.40683 14.1465 4.49351 14.2865 4.72684C14.4265 4.96684 14.3399 5.27349 14.1065 5.41349L8.25986 8.80017C8.1732 8.84017 8.08652 8.86682 7.99985 8.86682Z"/>
<path d="M7.99996 14.9069C7.72663 14.9069 7.49996 14.6802 7.49996 14.4069V8.36019C7.49996 8.08685 7.72663 7.86019 7.99996 7.86019C8.27329 7.86019 8.49996 8.08685 8.49996 8.36019V14.4069C8.49996 14.6802 8.27329 14.9069 7.99996 14.9069Z"/>
<path d="M8.00004 15.1668C7.41337 15.1668 6.83337 15.0402 6.37337 14.7868L2.81337 12.8068C1.84671 12.2735 1.09338 10.9868 1.09338 9.88016V6.11348C1.09338 5.00681 1.84671 3.72684 2.81337 3.18684L6.37337 1.2135C7.28671 0.706829 8.71337 0.706829 9.62671 1.2135L13.1867 3.19348C14.1534 3.72681 14.9067 5.01349 14.9067 6.12015V9.88684C14.9067 10.9935 14.1534 12.2735 13.1867 12.8135L9.62671 14.7868C9.16671 15.0402 8.58671 15.1668 8.00004 15.1668ZM8.00004 1.83349C7.58004 1.83349 7.16671 1.92016 6.86005 2.08683L3.30005 4.06681C2.66005 4.42681 2.09338 5.38015 2.09338 6.12015V9.88684C2.09338 10.6202 2.66005 11.5801 3.30005 11.9401L6.86005 13.9202C7.46671 14.2602 8.53337 14.2602 9.14003 13.9202L12.7 11.9401C13.34 11.5801 13.9067 10.6268 13.9067 9.88684V6.12015C13.9067 5.38682 13.34 4.42681 12.7 4.06681L9.14003 2.08683C8.83337 1.92016 8.42004 1.83349 8.00004 1.83349Z"/>
<path d="M11.3334 9.32686C11.0601 9.32686 10.8334 9.10019 10.8334 8.82686V6.68021L4.75342 3.17354C4.51342 3.03354 4.4334 2.72686 4.5734 2.49353C4.7134 2.25353 5.01342 2.17351 5.25342 2.31351L11.5801 5.96688C11.7334 6.05354 11.8334 6.22018 11.8334 6.40018V8.84021C11.8334 9.10021 11.6067 9.32686 11.3334 9.32686Z"/>
</mask>
<path d="M7.74652 8.80017L8.35117 7.76363L8.34758 7.76155L7.74652 8.80017ZM1.85986 5.39351L1.25521 6.43005L1.2588 6.43213L1.85986 5.39351ZM2.36651 4.52681L2.96758 3.48815L2.95884 3.48319L2.36651 4.52681ZM7.99985 7.78682L7.3988 8.82545L7.99979 9.17323L8.6008 8.8255L7.99985 7.78682ZM13.5999 4.54683L14.2008 5.58552L14.2045 5.58337L13.5999 4.54683ZM14.2865 4.72684L15.3231 4.1222L15.3193 4.1158L15.3155 4.10945L14.2865 4.72684ZM14.1065 5.41349L14.708 6.45187L14.716 6.44724L14.7239 6.44248L14.1065 5.41349ZM8.25986 8.80017L8.76273 9.88972L8.81322 9.86642L8.86134 9.83854L8.25986 8.80017ZM6.37337 14.7868L5.7901 15.8355L5.79448 15.838L6.37337 14.7868ZM2.81337 12.8068L3.39665 11.7581L3.39307 11.7561L2.81337 12.8068ZM2.81337 3.18684L2.2316 2.1373L2.22815 2.13922L2.81337 3.18684ZM6.37337 1.2135L6.95515 2.26304L6.95549 2.26285L6.37337 1.2135ZM9.62671 1.2135L10.21 0.164782L10.2088 0.164146L9.62671 1.2135ZM13.1867 3.19348L12.6034 4.2422L12.607 4.24417L13.1867 3.19348ZM13.1867 12.8135L13.7685 13.863L13.7719 13.8611L13.1867 12.8135ZM9.62671 14.7868L10.2056 15.838L10.2085 15.8364L9.62671 14.7868ZM6.86005 2.08683L6.287 1.03243L6.27678 1.03811L6.86005 2.08683ZM3.30005 4.06681L2.71677 3.01808L2.71174 3.02092L3.30005 4.06681ZM3.30005 11.9401L2.71173 12.986L2.71677 12.9888L3.30005 11.9401ZM6.86005 13.9202L7.44672 12.8733L7.44332 12.8715L6.86005 13.9202ZM9.14003 13.9202L8.55675 12.8714L8.55336 12.8734L9.14003 13.9202ZM12.7 11.9401L13.2833 12.9889L13.2883 12.986L12.7 11.9401ZM12.7 4.06681L13.2884 3.02091L13.2833 3.0181L12.7 4.06681ZM9.14003 2.08683L9.72333 1.03806L9.71305 1.03248L9.14003 2.08683ZM10.8334 6.68021H12.0334V5.98704L11.4329 5.64072L10.8334 6.68021ZM4.75342 3.17354L4.14876 4.21009L4.15388 4.21304L4.75342 3.17354ZM4.5734 2.49353L5.60239 3.11092L5.6062 3.10457L5.60994 3.09817L4.5734 2.49353ZM5.25342 2.31351L4.64876 3.35006L4.65333 3.3527L5.25342 2.31351ZM11.5801 5.96688L10.98 7.0061L10.9896 7.01155L11.5801 5.96688ZM7.99985 7.66682C8.1009 7.66682 8.22738 7.69143 8.35116 7.76363L7.14187 9.8367C7.42566 10.0022 7.72548 10.0668 7.99985 10.0668V7.66682ZM8.34758 7.76155L2.46092 4.35489L1.2588 6.43213L7.14546 9.83879L8.34758 7.76155ZM2.46451 4.35698C2.79952 4.5524 2.90883 4.98156 2.71638 5.31147L0.643313 4.10218C0.170868 4.91209 0.4402 5.95462 1.25522 6.43005L2.46451 4.35698ZM2.71638 5.31147C2.51895 5.64993 2.08816 5.74864 1.77419 5.57044L2.95884 3.48319C2.15153 3.02499 1.12074 3.28372 0.643313 4.10218L2.71638 5.31147ZM1.76546 5.56544L7.3988 8.82545L8.6009 6.7482L2.96756 3.48819L1.76546 5.56544ZM8.6008 8.8255L14.2008 5.58551L12.9989 3.50815L7.3989 6.74814L8.6008 8.8255ZM14.2045 5.58337C13.8555 5.78695 13.4426 5.65263 13.2575 5.34424L15.3155 4.10945C14.8505 3.33439 13.8242 3.02671 12.9952 3.5103L14.2045 5.58337ZM13.25 5.33149C13.0464 4.98254 13.1807 4.56957 13.4891 4.3845L14.7239 6.44248C15.499 5.97741 15.8066 4.95115 15.3231 4.1222L13.25 5.33149ZM13.505 4.37511L7.65839 7.76179L8.86134 9.83854L14.708 6.45187L13.505 4.37511ZM7.75699 7.71062C7.75811 7.7101 7.77982 7.7 7.81801 7.68972C7.85729 7.67915 7.9198 7.66682 7.99985 7.66682V10.0668C8.32849 10.0668 8.59521 9.96704 8.76273 9.88972L7.75699 7.71062ZM7.99996 13.7069C8.38937 13.7069 8.69996 14.0175 8.69996 14.4069H6.29996C6.29996 15.3429 7.06388 16.1069 7.99996 16.1069V13.7069ZM8.69996 14.4069V8.36019H6.29996V14.4069H8.69996ZM8.69996 8.36019C8.69996 8.7496 8.38937 9.06019 7.99996 9.06019V6.66019C7.06388 6.66019 6.29996 7.42411 6.29996 8.36019H8.69996ZM7.99996 9.06019C7.61055 9.06019 7.29996 8.7496 7.29996 8.36019H9.69996C9.69996 7.42411 8.93603 6.66019 7.99996 6.66019V9.06019ZM7.29996 8.36019V14.4069H9.69996V8.36019H7.29996ZM7.29996 14.4069C7.29996 14.0175 7.61055 13.7069 7.99996 13.7069V16.1069C8.93603 16.1069 9.69996 15.3429 9.69996 14.4069H7.29996ZM8.00004 13.9668C7.57068 13.9668 7.19922 13.8717 6.95226 13.7357L5.79448 15.838C6.46752 16.2086 7.25606 16.3668 8.00004 16.3668V13.9668ZM6.95664 13.7381L3.39664 11.7581L2.23011 13.8556L5.7901 15.8355L6.95664 13.7381ZM3.39307 11.7561C3.13774 11.6153 2.85092 11.3346 2.62575 10.951C2.40075 10.5677 2.29338 10.1771 2.29338 9.88016H-0.106616C-0.106616 10.6899 0.162676 11.4959 0.556008 12.166C0.949169 12.8357 1.52234 13.4651 2.23368 13.8575L3.39307 11.7561ZM2.29338 9.88016V6.11348H-0.106616V9.88016H2.29338ZM2.29338 6.11348C2.29338 5.81708 2.40042 5.42838 2.62532 5.04587C2.85017 4.66345 3.1384 4.37982 3.3986 4.23447L2.22815 2.13922C1.52169 2.53387 0.949914 3.16022 0.556434 3.82945C0.163005 4.49859 -0.106616 5.30322 -0.106616 6.11348H2.29338ZM3.39515 4.23639L6.95515 2.26304L5.7916 0.163954L2.2316 2.1373L3.39515 4.23639ZM6.95549 2.26285C7.19573 2.12958 7.56988 2.0335 8.00004 2.0335C8.4302 2.0335 8.80435 2.12958 9.04459 2.26285L10.2088 0.164146C9.53573 -0.209251 8.73988 -0.366504 8.00004 -0.366504C7.2602 -0.366504 6.46435 -0.209251 5.79125 0.164146L6.95549 2.26285ZM9.04344 2.26221L12.6034 4.24219L13.77 2.14476L10.21 0.164783L9.04344 2.26221ZM12.607 4.24417C12.8623 4.38504 13.1492 4.66572 13.3743 5.0493C13.5993 5.43259 13.7067 5.82322 13.7067 6.12015H16.1067C16.1067 5.31042 15.8374 4.50438 15.4441 3.83433C15.0509 3.16457 14.4777 2.53525 13.7664 2.14278L12.607 4.24417ZM13.7067 6.12015V9.88684H16.1067V6.12015H13.7067ZM13.7067 9.88684C13.7067 10.1832 13.5997 10.5719 13.3748 10.9544C13.1499 11.3369 12.8617 11.6205 12.6015 11.7658L13.7719 13.8611C14.4784 13.4664 15.0502 12.8401 15.4436 12.1709C15.8371 11.5017 16.1067 10.6971 16.1067 9.88684H13.7067ZM12.6049 11.7639L9.04493 13.7373L10.2085 15.8364L13.7685 13.863L12.6049 11.7639ZM9.04782 13.7357C8.80086 13.8717 8.4294 13.9668 8.00004 13.9668V16.3668C8.74402 16.3668 9.53256 16.2086 10.2056 15.838L9.04782 13.7357ZM8.00004 0.633491C7.43867 0.633491 6.81485 0.745622 6.28703 1.03248L7.43306 3.14118C7.51858 3.0947 7.72142 3.03349 8.00004 3.03349V0.633491ZM6.27678 1.03811L2.71678 3.0181L3.88332 5.11552L7.44331 3.13554L6.27678 1.03811ZM2.71174 3.02092C2.15539 3.33386 1.7171 3.84288 1.4231 4.34136C1.12928 4.83953 0.893384 5.47337 0.893384 6.12015H3.29338C3.29338 6.02694 3.34082 5.8141 3.49033 5.5606C3.63967 5.3074 3.80471 5.15976 3.88836 5.1127L2.71174 3.02092ZM0.893384 6.12015V9.88684H3.29338V6.12015H0.893384ZM0.893384 9.88684C0.893384 10.5312 1.12992 11.1649 1.42252 11.6621C1.71542 12.1598 2.15353 12.672 2.71174 12.986L3.88836 10.8942C3.80656 10.8482 3.64135 10.7005 3.49091 10.4449C3.34018 10.1887 3.29338 9.97581 3.29338 9.88684H0.893384ZM2.71677 12.9888L6.27677 14.9689L7.44332 12.8715L3.88333 10.8914L2.71677 12.9888ZM6.27337 14.967C6.80992 15.2677 7.44859 15.3752 8.00004 15.3752C8.55149 15.3752 9.19016 15.2677 9.72671 14.967L8.55336 12.8734C8.48324 12.9126 8.28525 12.9752 8.00004 12.9752C7.71483 12.9752 7.51684 12.9126 7.44672 12.8734L6.27337 14.967ZM9.72331 14.9689L13.2833 12.9888L12.1168 10.8914L8.55676 12.8715L9.72331 14.9689ZM13.2883 12.986C13.8447 12.6731 14.283 12.1641 14.577 11.6656C14.8708 11.1675 15.1067 10.5336 15.1067 9.88684H12.7067C12.7067 9.98005 12.6593 10.1929 12.5098 10.4464C12.3604 10.6995 12.1954 10.8472 12.1117 10.8942L13.2883 12.986ZM15.1067 9.88684V6.12015H12.7067V9.88684H15.1067ZM15.1067 6.12015C15.1067 5.4758 14.8702 4.84205 14.5776 4.34486C14.2847 3.84715 13.8466 3.33491 13.2883 3.02092L12.1117 5.1127C12.1935 5.1587 12.3587 5.30647 12.5092 5.5621C12.6599 5.81825 12.7067 6.03118 12.7067 6.12015H15.1067ZM13.2833 3.0181L9.7233 1.03811L8.55677 3.13554L12.1168 5.11552L13.2833 3.0181ZM9.71305 1.03248C9.18524 0.745622 8.56141 0.633491 8.00004 0.633491V3.03349C8.27867 3.03349 8.4815 3.0947 8.56702 3.14118L9.71305 1.03248ZM11.3334 8.12686C11.7228 8.12686 12.0334 8.43745 12.0334 8.82686H9.63341C9.63341 9.76294 10.3973 10.5269 11.3334 10.5269V8.12686ZM12.0334 8.82686V6.68021H9.63341V8.82686H12.0334ZM11.4329 5.64072L5.35295 2.13404L4.15388 4.21304L10.2339 7.71971L11.4329 5.64072ZM5.35806 2.13701C5.68266 2.32635 5.81397 2.7583 5.60239 3.11092L3.54441 1.87613C3.05284 2.69542 3.34417 3.74073 4.14877 4.21008L5.35806 2.13701ZM5.60994 3.09817C5.41831 3.42667 4.98519 3.54629 4.64877 3.35005L5.85806 1.27698C5.04164 0.800736 4.00849 1.08038 3.53687 1.88888L5.60994 3.09817ZM4.65333 3.3527L10.98 7.00606L12.1802 4.92769L5.8535 1.27433L4.65333 3.3527ZM10.9896 7.01155C10.7729 6.88906 10.6334 6.66036 10.6334 6.40018H13.0334C13.0334 5.78001 12.6939 5.21802 12.1705 4.9222L10.9896 7.01155ZM10.6334 6.40018V8.84021H13.0334V6.40018H10.6334ZM10.6334 8.84021C10.6334 8.41657 10.9651 8.12686 11.3334 8.12686V10.5269C12.2484 10.5269 13.0334 9.78384 13.0334 8.84021H10.6334Z" fill="currentColor" mask="url(#path-1-inside-1_1002_16171)"/>
</svg>
